<?xml version="1.0" encoding="UTF-8"?>
<svg width="20px" height="20px" viewBox="0 0 20 20" version="1.1" xmlns="http://www.w3.org/2000/svg" xmlns:xlink="http://www.w3.org/1999/xlink">
    <!-- Generator: Sketch 62 (91390) - https://sketch.com -->
    <title>Fill 1</title>
    <desc>Created with Sketch.</desc>
    <g id="Page-1" stroke="none" stroke-width="1" fill="none" fill-rule="evenodd">
        <g id="SEQ-LANDING-WHITE" transform="translate(-964.000000, -303.000000)" fill="#FFFFFF">
            <g id="Group-2" transform="translate(927.000000, 268.000000)">
                <path d="M52.8333333,37.5 L55.3291667,37.5 C56.2520833,37.5 57,38.24625 57,39.17 L57,53.33 C57,54.2520833 56.2525,55 55.3291667,55 L38.6708333,55 C37.7479167,55 37,54.25375 37,53.33 L37,39.17 C37,38.2475 37.7475,37.5 38.6708333,37.5 L41.1666667,37.5 L41.1666667,35.8358333 C41.1666667,35.3741667 41.5366667,35 42,35 C42.46,35 42.8333333,35.37375 42.8333333,35.8358333 L42.8333333,37.5 L51.1666667,37.5 L51.1666667,35.8358333 C51.1666667,35.3741667 51.5366667,35 52,35 C52.46,35 52.8333333,35.37375 52.8333333,35.8358333 L52.8333333,37.5 Z M55.4615385,44.2307692 L38.5397308,44.2307692 C38.5388846,48.3359441 38.5384615,53.4581818 38.5384615,53.4581818 C38.5384615,53.4606993 55.4581537,53.4615385 55.4581537,53.4615385 C55.4598461,53.4615385 55.4611154,48.3363636 55.4615385,44.2307692 L55.4615385,44.2307692 Z M55.4611153,42.6923077 C55.4615385,40.9153846 55.4615385,39.6184615 55.4615385,39.6184615 C55.4615385,39.6180769 54.4502582,39.6173077 52.9227596,39.6169231 L52.9227596,40.3823077 C52.9227596,40.8084615 52.5470203,41.1538462 52.0764999,41.1538462 C51.6093646,41.1538462 51.2302403,40.8088462 51.2302403,40.3823077 L51.2302403,39.6165385 C48.6457634,39.6161538 45.3516978,39.6157692 42.767644,39.6157692 L42.767644,40.3823077 C42.767644,40.8084615 42.3919048,41.1538462 41.9213844,41.1538462 C41.4542491,41.1538462 41.0751248,40.8088462 41.0751248,40.3823077 L41.0751248,39.6153846 C39.5497418,39.6153846 38.5405772,39.6153846 38.5405772,39.6153846 C38.5397309,39.6153846 38.5388847,40.9138462 38.5384615,42.6923077 L55.4611153,42.6923077 Z" id="Fill-1"></path>
            </g>
        </g>
    </g>
</svg>