<?xml version="1.0" encoding="UTF-8"?>
<svg width="239px" height="45px" viewBox="0 0 239 45" version="1.1" xmlns="http://www.w3.org/2000/svg" xmlns:xlink="http://www.w3.org/1999/xlink">
    <!-- Generator: Sketch 51.3 (57544) - http://www.bohemiancoding.com/sketch -->
    <title>logo_main</title>
    <desc>Created with Sketch.</desc>
    <defs></defs>
    <g id="Page-1" stroke="none" stroke-width="1" fill="none" fill-rule="evenodd">
        <g id="logo_main" fill-rule="nonzero">
            <g id="Group-10" transform="translate(42.187500, 10.312500)" fill="#231F20">
                <path d="M18.075,7.85625 C17.85,4.209375 14.746875,2.671875 11.2125,2.671875 C6.440625,2.671875 3.88125,4.36875 3.88125,7.509375 C3.88125,14.878125 21.215625,8.446875 21.215625,19.640625 C21.215625,23.79375 17.709375,27.590625 10.771875,27.590625 C5.325,27.590625 0.984375,24.84375 0.703125,18.99375 L3.515625,18.99375 C3.84375,23.578125 6.871875,25.134375 11.315625,25.134375 C15.759375,25.134375 18.39375,22.640625 18.39375,19.828125 C18.39375,11.390625 1.059375,18.09375 1.059375,7.640625 C1.059375,2.259375 5.746875,0.196875 10.921875,0.196875 C17.203125,0.196875 20.41875,2.75625 20.8875,7.85625 L18.075,7.85625 Z" id="_Compound_Path_"></path>
                <polygon id="_Compound_Path_2" points="31.321875 0.99375 47.653125 0.99375 47.653125 3.609375 34.14375 3.609375 34.14375 11.7 45.84375 11.7 45.84375 14.296875 34.14375 14.296875 34.14375 24.178125 47.653125 24.178125 47.653125 26.775 31.321875 26.775"></polygon>
                <path d="M73.33125,33.421875 L70.51875,33.421875 C67.95,33.421875 66.76875,32.6625 66.76875,29.990625 L66.76875,27.496875 C60.05625,26.8125 55.65,21.178125 55.65,13.884375 C55.65,6.121875 61.678125,0.196875 68.175,0.196875 C75.675,0.196875 80.709375,6.121875 80.709375,13.884375 C80.709375,21.075 75.54375,26.709375 69.590625,27.496875 L69.590625,29.19375 C69.590625,30.496875 69.984375,30.965625 71.325,30.965625 L73.3125,30.965625 L73.33125,33.421875 Z M68.19375,2.671875 C62.85,2.671875 58.771875,7.8 58.771875,13.921875 C58.771875,19.659375 61.696875,25.171875 68.19375,25.171875 C73.546875,25.171875 77.625,20.04375 77.625,13.921875 C77.625,8.1375 74.7,2.671875 68.19375,2.671875 Z" id="_Compound_Path_3"></path>
                <path d="M111.31875,0.99375 L111.31875,18.0375 C111.31875,24.46875 107.025,27.571875 100.70625,27.571875 C94.3875,27.571875 90.084375,25.171875 90.084375,18.0375 L90.084375,0.99375 L92.896875,0.99375 L92.896875,17.86875 C92.896875,22.996875 96.009375,25.0875 100.70625,25.0875 C105.403125,25.0875 108.50625,22.996875 108.50625,17.86875 L108.50625,0.99375 L111.31875,0.99375 Z" id="_Compound_Path_4"></path>
                <polygon id="_Compound_Path_5" points="121.828125 0.99375 138.15 0.99375 138.15 3.609375 124.65 3.609375 124.65 11.7 136.35 11.7 136.35 14.296875 124.65 14.296875 124.65 24.178125 138.15 24.178125 138.15 26.775 121.828125 26.775"></polygon>
                <polygon id="_Compound_Path_6" points="147.215625 0.99375 150.028125 0.99375 165.965625 21.9375 166.03125 21.9375 166.03125 0.99375 168.84375 0.99375 168.84375 26.775 166.03125 26.775 150.103125 5.484375 150.0375 5.484375 150.0375 26.775 147.225 26.775"></polygon>
                <polygon id="_Compound_Path_7" points="195.9375 0.99375 195.9375 3.609375 187.96875 3.609375 187.96875 26.775 185.15625 26.775 185.15625 3.609375 177.140625 3.609375 177.140625 0.99375"></polygon>
            </g>
            <g id="Group-3">
                <rect id="_Path_" fill="#6BC4E8" x="9.20625" y="0" width="8.0625" height="8.0625"></rect>
                <rect id="_Path_2" fill="#6BC4E8" x="9.20625" y="18.4125" width="8.0625" height="8.0625"></rect>
                <polyline id="_Path_3" fill="#0055B8" points="18.4125 18.4125 18.4125 26.475 26.475 26.475"></polyline>
                <rect id="_Path_4" fill="#002856" x="18.4125" y="9.20625" width="8.0625" height="8.0625"></rect>
                <rect id="_Path_5" fill="#002856" x="18.4125" y="27.61875" width="8.0625" height="8.0625"></rect>
                <rect id="_Path_6" fill="#002856" x="9.20625" y="36.834375" width="8.0625" height="8.0625"></rect>
                <polyline id="_Path_7" fill="#0055B8" points="18.4125 0 18.4125 8.0625 26.475 8.0625"></polyline>
                <polyline id="_Path_8" fill="#6BC4E8" points="8.0625 16.74375 8.0625 9.196875 0.515625 9.196875"></polyline>
                <polyline id="_Path_9" fill="#6BC4E8" points="8.0625 35.165625 8.0625 27.61875 0.515625 27.61875"></polyline>
                <polygon id="_Path_10" fill="#0055B8" points="0 10.35 0 18.4125 8.0625 26.475 8.0625 18.4125"></polygon>
                <polygon id="_Path_11" fill="#0055B8" points="0 28.771875 0 36.834375 8.0625 44.896875 8.0625 36.834375"></polygon>
            </g>
        </g>
    </g>
</svg>