<?xml version="1.0" encoding="UTF-8"?>
<svg width="247px" height="45px" viewBox="0 0 247 45" version="1.1" xmlns="http://www.w3.org/2000/svg" xmlns:xlink="http://www.w3.org/1999/xlink">
    <!-- Generator: Sketch 51.3 (57544) - http://www.bohemiancoding.com/sketch -->
    <title>logo_main</title>
    <desc>Created with Sketch.</desc>
    <defs></defs>
    <g id="Page-1" stroke="none" stroke-width="1" fill="none" fill-rule="evenodd">
        <g id="logo_main">
            <path d="M60.2625,18.16875 C60.0375,14.521875 56.934375,12.984375 53.4,12.984375 C48.628125,12.984375 46.06875,14.68125 46.06875,17.821875 C46.06875,25.190625 63.403125,18.759375 63.403125,29.953125 C63.403125,34.10625 59.896875,37.903125 52.959375,37.903125 C47.5125,37.903125 43.171875,35.15625 42.890625,29.30625 L45.703125,29.30625 C46.03125,33.890625 49.059375,35.446875 53.503125,35.446875 C57.946875,35.446875 60.58125,32.953125 60.58125,30.140625 C60.58125,21.703125 43.246875,28.40625 43.246875,17.953125 C43.246875,12.571875 47.934375,10.509375 53.109375,10.509375 C59.390625,10.509375 62.60625,13.06875 63.075,18.16875 L60.2625,18.16875 Z" id="Shape" fill="#231F20" fill-rule="nonzero"></path>
            <polygon id="Shape" fill="#231F20" fill-rule="nonzero" points="73.509375 11.30625 89.840625 11.30625 89.840625 13.921875 76.33125 13.921875 76.33125 22.0125 88.03125 22.0125 88.03125 24.609375 76.33125 24.609375 76.33125 34.490625 89.840625 34.490625 89.840625 37.0875 73.509375 37.0875"></polygon>
            <path d="M115.51875,43.734375 L112.70625,43.734375 C110.1375,43.734375 108.95625,42.975 108.95625,40.303125 L108.95625,37.809375 C102.24375,37.125 97.8375,31.490625 97.8375,24.196875 C97.8375,16.434375 103.865625,10.509375 110.3625,10.509375 C117.8625,10.509375 122.896875,16.434375 122.896875,24.196875 C122.896875,31.3875 117.73125,37.021875 111.778125,37.809375 L111.778125,39.50625 C111.778125,40.809375 112.171875,41.278125 113.5125,41.278125 L115.5,41.278125 L115.51875,43.734375 Z M110.38125,12.984375 C105.0375,12.984375 100.959375,18.1125 100.959375,24.234375 C100.959375,29.971875 103.884375,35.484375 110.38125,35.484375 C115.734375,35.484375 119.8125,30.35625 119.8125,24.234375 C119.8125,18.45 116.8875,12.984375 110.38125,12.984375 Z" id="Shape" fill="#231F20" fill-rule="nonzero"></path>
            <path d="M153.50625,11.30625 L153.50625,28.35 C153.50625,34.78125 149.2125,37.884375 142.89375,37.884375 C136.575,37.884375 132.271875,35.484375 132.271875,28.35 L132.271875,11.30625 L135.084375,11.30625 L135.084375,28.18125 C135.084375,33.309375 138.196875,35.4 142.89375,35.4 C147.590625,35.4 150.69375,33.309375 150.69375,28.18125 L150.69375,11.30625 L153.50625,11.30625 Z" id="Shape" fill="#231F20" fill-rule="nonzero"></path>
            <polygon id="Shape" fill="#231F20" fill-rule="nonzero" points="164.015625 11.30625 180.3375 11.30625 180.3375 13.921875 166.8375 13.921875 166.8375 22.0125 178.5375 22.0125 178.5375 24.609375 166.8375 24.609375 166.8375 34.490625 180.3375 34.490625 180.3375 37.0875 164.015625 37.0875"></polygon>
            <polygon id="Shape" fill="#231F20" fill-rule="nonzero" points="189.403125 11.30625 192.215625 11.30625 208.153125 32.25 208.21875 32.25 208.21875 11.30625 211.03125 11.30625 211.03125 37.0875 208.21875 37.0875 192.290625 15.796875 192.225 15.796875 192.225 37.0875 189.4125 37.0875"></polygon>
            <polygon id="Shape" fill="#231F20" fill-rule="nonzero" points="238.125 11.30625 238.125 13.921875 230.15625 13.921875 230.15625 37.0875 227.34375 37.0875 227.34375 13.921875 219.328125 13.921875 219.328125 11.30625"></polygon>
            <polygon id="Shape" fill="#6BC4E8" fill-rule="nonzero" points="9.20625 0 17.26875 0 17.26875 8.0625 9.20625 8.0625"></polygon>
            <polygon id="Shape" fill="#6BC4E8" fill-rule="nonzero" points="9.20625 18.4125 17.26875 18.4125 17.26875 26.475 9.20625 26.475"></polygon>
            <polyline id="Shape" fill="#0055B8" fill-rule="nonzero" points="18.4125 18.4125 18.4125 26.475 26.475 26.475"></polyline>
            <polygon id="Shape" fill="#002856" fill-rule="nonzero" points="18.4125 9.20625 26.475 9.20625 26.475 17.26875 18.4125 17.26875"></polygon>
            <polygon id="Shape" fill="#002856" fill-rule="nonzero" points="18.4125 27.61875 26.475 27.61875 26.475 35.68125 18.4125 35.68125"></polygon>
            <polygon id="Shape" fill="#002856" fill-rule="nonzero" points="9.20625 36.834375 17.26875 36.834375 17.26875 44.896875 9.20625 44.896875"></polygon>
            <polyline id="Shape" fill="#0055B8" fill-rule="nonzero" points="18.4125 0 18.4125 8.0625 26.475 8.0625"></polyline>
            <polyline id="Shape" fill="#6BC4E8" fill-rule="nonzero" points="8.0625 16.74375 8.0625 9.196875 0.515625 9.196875"></polyline>
            <polyline id="Shape" fill="#6BC4E8" fill-rule="nonzero" points="8.0625 35.165625 8.0625 27.61875 0.515625 27.61875"></polyline>
            <polygon id="Shape" fill="#0055B8" fill-rule="nonzero" points="0 10.35 0 18.4125 8.0625 26.475 8.0625 18.4125"></polygon>
            <polygon id="Shape" fill="#0055B8" fill-rule="nonzero" points="0 28.771875 0 36.834375 8.0625 44.896875 8.0625 36.834375"></polygon>
            <path d="M241.1199,13.6177 C241.1309,13.8027 241.1719,13.9527 241.2459,14.0677 C241.3869,14.2827 241.6359,14.3907 241.9899,14.3907 C242.1499,14.3907 242.2959,14.3677 242.4259,14.3197 C242.6799,14.2287 242.8059,14.0647 242.8059,13.8287 C242.8059,13.6517 242.7529,13.5247 242.6439,13.4497 C242.5359,13.3757 242.3659,13.3117 242.1349,13.2567 L241.7079,13.1577 C241.4289,13.0917 241.2299,13.0207 241.1149,12.9427 C240.9139,12.8057 240.8139,12.6037 240.8139,12.3327 C240.8139,12.0407 240.9129,11.8007 241.1089,11.6137 C241.3069,11.4257 241.5859,11.3317 241.9459,11.3317 C242.2779,11.3317 242.5599,11.4137 242.7919,11.5787 C243.0239,11.7437 243.1409,12.0067 243.1409,12.3677 L242.7259,12.3677 C242.7049,12.1947 242.6589,12.0607 242.5909,11.9677 C242.4619,11.7977 242.2419,11.7127 241.9329,11.7127 C241.6839,11.7127 241.5059,11.7677 241.3969,11.8767 C241.2879,11.9857 241.2329,12.1127 241.2329,12.2577 C241.2329,12.4177 241.2969,12.5337 241.4269,12.6077 C241.5109,12.6557 241.7019,12.7147 241.9999,12.7847 L242.4409,12.8887 C242.6539,12.9397 242.8189,13.0087 242.9339,13.0957 C243.1359,13.2467 243.2349,13.4677 243.2349,13.7577 C243.2349,14.1177 243.1079,14.3757 242.8519,14.5307 C242.5969,14.6857 242.2999,14.7627 241.9609,14.7627 C241.5659,14.7627 241.2579,14.6587 241.0339,14.4527 C240.8099,14.2477 240.7019,13.9697 240.7059,13.6177 L241.1199,13.6177 Z" id="Fill-27" fill="#231F20"></path>
            <path d="M243.8474,11.414 L244.4794,11.414 L245.4134,14.164 L246.3434,11.414 L246.9704,11.414 L246.9704,14.667 L246.5494,14.667 L246.5494,12.747 C246.5494,12.681 246.5504,12.571 246.5544,12.417 C246.5574,12.264 246.5584,12.099 246.5584,11.923 L245.6294,14.667 L245.1924,14.667 L244.2544,11.923 L244.2544,12.023 C244.2544,12.102 244.2574,12.224 244.2614,12.387 C244.2654,12.551 244.2684,12.67 244.2684,12.747 L244.2684,14.667 L243.8474,14.667 L243.8474,11.414 Z" id="Fill-28" fill="#231F20"></path>
        </g>
    </g>
</svg>