<?xml version="1.0" encoding="UTF-8"?>
<svg width="19px" height="16px" viewBox="0 0 19 16" version="1.1" xmlns="http://www.w3.org/2000/svg" xmlns:xlink="http://www.w3.org/1999/xlink">
    <!-- Generator: Sketch 51.3 (57544) - http://www.bohemiancoding.com/sketch -->
    <title>social_twitter_blue</title>
    <desc>Created with Sketch.</desc>
    <defs></defs>
    <g id="Symbols" stroke="none" stroke-width="1" fill="none" fill-rule="evenodd">
        <path d="M17.8060843,0.289416821 C17.0955724,0.744495306 16.3073763,1.07516385 15.4695818,1.25326651 C14.7997048,0.481924842 13.8435912,0 12.785293,0 C10.7547469,0 9.10784134,1.77644307 9.10784134,3.96736769 C9.10784134,4.27839255 9.14070774,4.58025037 9.20225755,4.87097677 C6.14568208,4.7053151 3.43569777,3.12596358 1.62147233,0.726161209 C1.30535729,1.31154274 1.12309815,1.99317829 1.12309815,2.72064907 C1.12309815,4.09636116 1.77385293,5.3109951 2.75984501,6.02209616 C2.15749348,6.0011429 1.58980107,5.82304025 1.09381717,5.52642074 C1.09381717,5.54279047 1.09381717,5.55981499 1.09381717,5.57618472 C1.09381717,7.49799099 2.36186275,9.10156971 4.04462258,9.46694207 C3.73567839,9.55730298 3.41119736,9.60575738 3.07476491,9.60575738 C2.83812681,9.60575738 2.60806199,9.58087539 2.38277774,9.53438536 C2.85187094,11.1098081 4.20955217,12.2576536 5.81881077,12.2897383 C4.55972875,13.3537707 2.97437299,13.9882614 1.25038076,13.9882614 C0.952790424,13.9882614 0.661175794,13.9692725 0.37254902,13.9326043 C2.00152746,15.0581869 3.93526709,15.7142857 6.01182619,15.7142857 C12.7775246,15.7142857 16.4764889,9.66992672 16.4764889,4.4270297 C16.4764889,4.25547493 16.4740986,4.08326537 16.4669277,3.91367497 C17.1846105,3.35448501 17.8090721,2.65582495 18.3014706,1.85960129 C17.6423498,2.17586447 16.9336307,2.38801617 16.1890572,2.48427018 C16.9485699,1.99383308 17.530604,1.21659831 17.8060843,0.289416821 Z" id="social_twitter_blue" fill="#4ABCED" fill-rule="nonzero"></path>
    </g>
</svg>