<?xml version="1.0" encoding="UTF-8"?>
<svg width="18px" height="16px" viewBox="0 0 18 16" version="1.1" xmlns="http://www.w3.org/2000/svg" xmlns:xlink="http://www.w3.org/1999/xlink">
    <!-- Generator: Sketch 51.3 (57544) - http://www.bohemiancoding.com/sketch -->
    <title>social_twitter_white</title>
    <desc>Created with Sketch.</desc>
    <defs></defs>
    <g id="Page-1" stroke="none" stroke-width="1" fill="none" fill-rule="evenodd">
        <path d="M17.4335352,0.289416821 C16.7230234,0.744495306 15.9348273,1.07516385 15.0970328,1.25326651 C14.4271557,0.481924842 13.4710422,0 12.412744,0 C10.3821979,0 8.73529232,1.77644307 8.73529232,3.96736769 C8.73529232,4.27839255 8.76815872,4.58025037 8.82970853,4.87097677 C5.77313306,4.7053151 3.06314875,3.12596358 1.24892331,0.726161209 C0.932808271,1.31154274 0.750549128,1.99317829 0.750549128,2.72064907 C0.750549128,4.09636116 1.40130391,5.3109951 2.38729599,6.02209616 C1.78494446,6.0011429 1.21725205,5.82304025 0.721268151,5.52642074 C0.721268151,5.54279047 0.721268151,5.55981499 0.721268151,5.57618472 C0.721268151,7.49799099 1.98931373,9.10156971 3.67207356,9.46694207 C3.36312937,9.55730298 3.03864834,9.60575738 2.70221589,9.60575738 C2.46557779,9.60575738 2.23551297,9.58087539 2.01022872,9.53438536 C2.47932192,11.1098081 3.83700315,12.2576536 5.44626175,12.2897383 C4.18717973,13.3537707 2.60182397,13.9882614 0.877831743,13.9882614 C0.580241404,13.9882614 0.288626775,13.9692725 0,13.9326043 C1.62897844,15.0581869 3.56271807,15.7142857 5.63927717,15.7142857 C12.4049756,15.7142857 16.1039399,9.66992672 16.1039399,4.4270297 C16.1039399,4.25547493 16.1015496,4.08326537 16.0943787,3.91367497 C16.8120614,3.35448501 17.4365231,2.65582495 17.9289216,1.85960129 C17.2698008,2.17586447 16.5610816,2.38801617 15.8165082,2.48427018 C16.5760209,1.99383308 17.158055,1.21659831 17.4335352,0.289416821 Z" id="social_twitter_white" fill="#FFFFFF" fill-rule="nonzero"></path>
    </g>
</svg>