<?xml version="1.0" encoding="UTF-8"?>
<svg width="650px" height="712px" viewBox="0 0 650 712" version="1.1" xmlns="http://www.w3.org/2000/svg" xmlns:xlink="http://www.w3.org/1999/xlink">
    <title>home_overlay</title>
    <g id="home_overlay" stroke="none" stroke-width="1" fill="none" fill-rule="evenodd" opacity="0.101027716">
        <path d="M1.13686838e-13,379.107953 L284.67324,663.516652 L284.673,712 L52.877,712 L1.13686838e-13,659.171986 L1.13686838e-13,379.107953 Z M580,666 L580,712 L295,712 L295,666 L580,666 Z M650,371.691 L650,656.102 L590.329182,656.102175 L590.329182,371.691057 L650,371.691 Z M284.67324,371.691057 L284.67324,648.682859 L7.42360556,371.691057 L284.67324,371.691057 Z M590,84 L590.329,84.329 L590.329182,84.2101277 L650,143.827 L650,361.206 L590.329182,361.206768 L590.329,361 L590,361 L590,84 Z M579.835409,76.7908125 L579.835409,361.206768 L295.167012,361.206768 L295.167012,76.7908125 L579.835409,76.7908125 Z M210.88,0 L284.67324,73.7258394 L284.67324,353.789872 L1.13686838e-13,69.3787544 L0,0 L210.88,0 Z M650,0 L650,66.306 L590.329182,66.3065241 L590.329,0 L650,0 Z M285,0 L285,58 L284.673,57.673 L284.67324,58.8920469 L225.727,0 L285,0 Z" id="Combined-Shape" fill="#FFFFFF"></path>
    </g>
</svg>