<svg xmlns="http://www.w3.org/2000/svg" xmlns:xlink="http://www.w3.org/1999/xlink" width="367" height="1144" viewBox="0 0 367 1144"><svg width="367" height="723" viewBox="-5 -5 367 723" id="header_slant" y="0"><title>header_slant</title><path fill="#4ABCED" d="M0 0v356.5l178.5 178.25L357 713V356.5L178.5 178.25z" fill-rule="evenodd"></path></svg><svg width="36" height="36" viewBox="-5 -5 36 36" id="icon_arrow_yellow" y="723"><title>icon_arrow_yellow</title><g fill="none" fill-rule="evenodd"><circle fill="#FAAD16" cx="12.879" cy="12.879" r="12.879"></circle><path fill="#FFF" fill-rule="nonzero" d="M8.645 8.284L11 5.93 18.071 13 11 20.071l-2.426-2.426 4.715-4.716z"></path></g></svg><svg width="71" height="71" viewBox="-5 -5 71 71" id="icon_newsletter" y="759"><title>icon_newsletter</title><g fill="none" fill-rule="evenodd"><circle fill="#FFF" cx="30.5" cy="30.5" r="30.5"></circle><path d="M17 21.583V39h29V21.583L32.209 32.6c-.412.33-1.006.33-1.418 0L17 21.583zM18.611 20L31.5 29.5 44.389 20H18.61z" fill="#1077DD"></path></g></svg><svg width="249" height="55" viewBox="-5 -5 249 55" id="logo_main" y="830"><title>logo_main</title><g fill-rule="nonzero" fill="none"><g transform="translate(42.188 10.313)" fill="#231F20"><path d="M18.075 7.856c-.225-3.647-3.328-5.184-6.862-5.184-4.772 0-7.332 1.697-7.332 4.837 0 7.37 17.335.938 17.335 12.132 0 4.153-3.507 7.95-10.444 7.95-5.447 0-9.788-2.747-10.069-8.597h2.813c.328 4.584 3.356 6.14 7.8 6.14 4.443 0 7.078-2.493 7.078-5.306 0-8.437-17.335-1.734-17.335-12.187 0-5.382 4.688-7.444 9.863-7.444 6.281 0 9.497 2.56 9.965 7.66h-2.812zM31.322.994h16.331v2.615h-13.51V11.7h11.7v2.597h-11.7v9.881h13.51v2.597H31.322zM73.331 33.422H70.52c-2.569 0-3.75-.76-3.75-3.431v-2.494c-6.713-.684-11.119-6.319-11.119-13.613C55.65 6.122 61.678.197 68.175.197c7.5 0 12.534 5.925 12.534 13.687 0 7.191-5.165 12.825-11.118 13.613v1.697c0 1.303.393 1.772 1.734 1.772h1.987l.02 2.456zm-5.137-30.75c-5.344 0-9.422 5.128-9.422 11.25 0 5.737 2.925 11.25 9.422 11.25 5.353 0 9.431-5.128 9.431-11.25 0-5.785-2.925-11.25-9.431-11.25zM111.319.994v17.044c0 6.43-4.294 9.534-10.613 9.534s-10.622-2.4-10.622-9.534V.994h2.813v16.875c0 5.128 3.112 7.218 7.81 7.218 4.696 0 7.8-2.09 7.8-7.218V.994h2.812zM121.828.994h16.322v2.615h-13.5V11.7h11.7v2.597h-11.7v9.881h13.5v2.597h-16.322zM147.216.994h2.812l15.938 20.944h.065V.994h2.813v25.781h-2.813l-15.928-21.29h-.066v21.29h-2.812zM195.938.994v2.615h-7.97v23.166h-2.812V3.609h-8.015V.994z"></path></g><path fill="#6BC4E8" d="M9.206 0h8.063v8.063H9.206zM9.206 18.413h8.063v8.063H9.206z"></path><path fill="#0055B8" d="M18.413 18.413v8.062h8.062"></path><path fill="#002856" d="M18.413 9.206h8.063v8.063h-8.063zM18.413 27.619h8.063v8.063h-8.063zM9.206 36.834h8.063v8.063H9.206z"></path><path fill="#0055B8" d="M18.413 0v8.063h8.062"></path><path fill="#6BC4E8" d="M8.063 16.744V9.197H.516M8.063 35.166v-7.547H.516"></path><path fill="#0055B8" d="M0 10.35v8.063l8.063 8.062v-8.063zM0 28.772v8.062l8.063 8.063v-8.063z"></path></g></svg><svg width="249" height="55" viewBox="-5 -5 249 55" id="logo_white" y="885"><title>logo_white</title><g fill="#FFF" fill-rule="nonzero"><g transform="translate(42.188 10.313)"><path d="M18.075 7.856c-.225-3.647-3.328-5.184-6.862-5.184-4.772 0-7.332 1.697-7.332 4.837 0 7.37 17.335.938 17.335 12.132 0 4.153-3.507 7.95-10.444 7.95-5.447 0-9.788-2.747-10.069-8.597h2.813c.328 4.584 3.356 6.14 7.8 6.14 4.443 0 7.078-2.493 7.078-5.306 0-8.437-17.335-1.734-17.335-12.187 0-5.382 4.688-7.444 9.863-7.444 6.281 0 9.497 2.56 9.965 7.66h-2.812zM31.322.994h16.331v2.615h-13.51V11.7h11.7v2.597h-11.7v9.881h13.51v2.597H31.322zM73.331 33.422H70.52c-2.569 0-3.75-.76-3.75-3.431v-2.494c-6.713-.684-11.119-6.319-11.119-13.613C55.65 6.122 61.678.197 68.175.197c7.5 0 12.534 5.925 12.534 13.687 0 7.191-5.165 12.825-11.118 13.613v1.697c0 1.303.393 1.772 1.734 1.772h1.987l.02 2.456zm-5.137-30.75c-5.344 0-9.422 5.128-9.422 11.25 0 5.737 2.925 11.25 9.422 11.25 5.353 0 9.431-5.128 9.431-11.25 0-5.785-2.925-11.25-9.431-11.25zM111.319.994v17.044c0 6.43-4.294 9.534-10.613 9.534s-10.622-2.4-10.622-9.534V.994h2.813v16.875c0 5.128 3.112 7.218 7.81 7.218 4.696 0 7.8-2.09 7.8-7.218V.994h2.812zM121.828.994h16.322v2.615h-13.5V11.7h11.7v2.597h-11.7v9.881h13.5v2.597h-16.322zM147.216.994h2.812l15.938 20.944h.065V.994h2.813v25.781h-2.813l-15.928-21.29h-.066v21.29h-2.812zM195.938.994v2.615h-7.97v23.166h-2.812V3.609h-8.015V.994z"></path></g><path d="M9.206 0h8.063v8.063H9.206zM9.206 18.413h8.063v8.063H9.206zM18.413 18.413v8.062h8.062M18.413 9.206h8.063v8.063h-8.063zM18.413 27.619h8.063v8.063h-8.063zM9.206 36.834h8.063v8.063H9.206zM18.413 0v8.063h8.062M8.063 16.744V9.197H.516M8.063 35.166v-7.547H.516M0 10.35v8.063l8.063 8.062v-8.063zM0 28.772v8.062l8.063 8.063v-8.063z"></path></g></svg><svg width="28" height="22" viewBox="-5 -5 28 22" id="social_email_blue" y="940"><title>social_emal_white</title><path d="M0 1v11h18V1L9.44 7.957a.697.697 0 0 1-.88 0L0 1zm1-1l8 6 8-6H1z" fill="#4ABCED" fill-rule="evenodd"></path></svg><svg width="28" height="22" viewBox="-5 -5 28 22" id="social_email_white" y="962"><title>social_emal_white</title><path d="M0 1v11h18V1L9.44 7.957a.697.697 0 0 1-.88 0L0 1zm1-1l8 6 8-6H1z" fill="#FFF" fill-rule="evenodd"></path></svg><svg width="19" height="28" viewBox="-5 -5 19 28" id="social_facebook_blue" y="984"><title>social_facebook_blue</title><path d="M1.8 17.883h3.6V8.942h2.672L8.4 5.365H5.54v-1.43c0-.696.467-.859.795-.859h2.02V.011L5.574 0C2.486 0 1.785 2.285 1.785 3.748v1.617H0V8.94h1.8v8.942z" fill="#4ABCED" fill-rule="nonzero"></path></svg><svg width="19" height="28" viewBox="-5 -5 19 28" id="social_facebook_white" y="1012"><title>social_facebook_white</title><path d="M1.8 17.883h3.6V8.942h2.672L8.4 5.365H5.54v-1.43c0-.696.467-.859.795-.859h2.02V.011L5.574 0C2.486 0 1.785 2.285 1.785 3.748v1.617H0V8.94h1.8v8.942z" fill="#FFF" fill-rule="nonzero"></path></svg><svg width="26" height="26" viewBox="-5 -5 26 26" id="social_linkedin_blue" y="1040"><title>social_linkedin_blue</title><g fill="#4ABCED" fill-rule="nonzero"><path d="M.555 5.695h3.592v10.264H.555z"></path><circle cx="2.351" cy="2.36" r="1.796"></circle><path d="M15.95 10.319c0-2.77-.597-4.624-3.825-4.624-1.552 0-2.593.577-3.02 1.385h-.044V5.695H6.2V15.96h2.99v-5.087c0-1.342.254-2.64 1.914-2.64 1.635 0 1.767 1.534 1.767 2.727v5h3.08v-5.64z"></path></g></svg><svg width="26" height="26" viewBox="-5 -5 26 26" id="social_linkedin_white" y="1066"><title>social_linkedin_white</title><g fill="#FFF" fill-rule="nonzero"><path d="M.555 5.695h3.592v10.264H.555z"></path><circle cx="2.351" cy="2.36" r="1.796"></circle><path d="M15.95 10.319c0-2.77-.597-4.624-3.825-4.624-1.552 0-2.593.577-3.02 1.385h-.044V5.695H6.2V15.96h2.99v-5.087c0-1.342.254-2.64 1.914-2.64 1.635 0 1.767 1.534 1.767 2.727v5h3.08v-5.64z"></path></g></svg><svg width="29" height="26" viewBox="-5 -5 29 26" id="social_twitter_blue" y="1092"><title>social_twitter_blue</title><path d="M17.806.29a7.048 7.048 0 0 1-2.336.963C14.8.482 13.844 0 12.785 0c-2.03 0-3.677 1.776-3.677 3.967 0 .311.033.613.094.904-3.056-.166-5.766-1.745-7.58-4.145a4.192 4.192 0 0 0-.499 1.995c0 1.375.65 2.59 1.637 3.301a3.474 3.474 0 0 1-1.666-.496v.05c0 1.922 1.268 3.526 2.95 3.89a3.445 3.445 0 0 1-1.661.068c.469 1.576 1.827 2.724 3.436 2.756-1.26 1.064-2.845 1.698-4.569 1.698-.297 0-.589-.019-.877-.055 1.629 1.125 3.562 1.781 5.639 1.781 6.766 0 10.464-6.044 10.464-11.287 0-.172-.002-.344-.01-.513a7.818 7.818 0 0 0 1.835-2.054 6.92 6.92 0 0 1-2.112.624A3.94 3.94 0 0 0 17.806.29z" fill="#4ABCED" fill-rule="nonzero"></path></svg><svg width="28" height="26" viewBox="-5 -5 28 26" id="social_twitter_white" y="1118"><title>social_twitter_white</title><path d="M17.434.29a7.048 7.048 0 0 1-2.337.963C14.427.482 13.471 0 12.413 0c-2.03 0-3.678 1.776-3.678 3.967 0 .311.033.613.095.904C5.773 4.705 3.063 3.126 1.249.726A4.192 4.192 0 0 0 .75 2.721c0 1.375.65 2.59 1.636 3.301a3.474 3.474 0 0 1-1.666-.496v.05c0 1.922 1.268 3.526 2.951 3.89a3.445 3.445 0 0 1-1.662.068c.47 1.576 1.827 2.724 3.436 2.756-1.259 1.064-2.844 1.698-4.568 1.698-.298 0-.59-.019-.878-.055 1.629 1.125 3.563 1.781 5.64 1.781 6.765 0 10.464-6.044 10.464-11.287 0-.172-.002-.344-.01-.513A7.818 7.818 0 0 0 17.93 1.86a6.92 6.92 0 0 1-2.112.624A3.94 3.94 0 0 0 17.434.29z" fill="#FFF" fill-rule="nonzero"></path></svg></svg>