<svg xmlns="http://www.w3.org/2000/svg" xmlns:xlink="http://www.w3.org/1999/xlink" width="367" height="1174" viewBox="0 0 367 1174"><svg width="367" height="723" viewBox="-5 -5 367 723" id="header_slant" y="0"><title>header_slant</title><path fill="#4ABCED" d="M0 0v356.5l178.5 178.25L357 713V356.5L178.5 178.25z" fill-rule="evenodd"></path></svg><svg width="36" height="36" viewBox="-5 -5 36 36" id="icon_arrow_yellow" y="723"><title>icon_arrow_yellow</title><g fill="none" fill-rule="evenodd"><circle fill="#FAAD16" cx="12.879" cy="12.879" r="12.879"></circle><path fill="#FFF" fill-rule="nonzero" d="M8.645 8.284L11 5.93 18.071 13 11 20.071l-2.426-2.426 4.715-4.716z"></path></g></svg><svg width="30" height="30" viewBox="-5 -5 30 30" id="icon_calendar" y="759"><title>Fill 1</title><path d="M15.833 2.5h2.496c.923 0 1.671.746 1.671 1.67v14.16A1.67 1.67 0 0 1 18.33 20H1.67A1.67 1.67 0 0 1 0 18.33V4.17C0 3.248.748 2.5 1.67 2.5h2.497V.836a.833.833 0 1 1 1.666 0V2.5h8.334V.836a.833.833 0 1 1 1.666 0V2.5zm2.629 6.73H1.54l-.002 9.228c0 .003 16.92.004 16.92.004.002 0 .003-5.126.004-9.231zm0-1.538V4.618l-2.54-.001v.765c0 .426-.375.772-.846.772-.467 0-.846-.345-.846-.772v-.765l-8.462-.001v.766c0 .426-.376.772-.847.772-.467 0-.846-.345-.846-.772v-.767H1.541l-.003 3.077h16.923z" fill="#FFF" fill-rule="evenodd"></path></svg><svg width="71" height="71" viewBox="-5 -5 71 71" id="icon_newsletter" y="789"><title>icon_newsletter</title><g fill="none" fill-rule="evenodd"><circle fill="#FFF" cx="30.5" cy="30.5" r="30.5"></circle><path d="M17 21.583V39h29V21.583L32.209 32.6c-.412.33-1.006.33-1.418 0L17 21.583zM18.611 20L31.5 29.5 44.389 20H18.61z" fill="#1077DD"></path></g></svg><svg width="257" height="55" viewBox="-5 -5 257 55" id="logo_main" y="860"><title>logo_main</title><g fill="none" fill-rule="evenodd"><path d="M60.263 18.169c-.225-3.647-3.329-5.185-6.863-5.185-4.772 0-7.331 1.697-7.331 4.838 0 7.369 17.334.937 17.334 12.131 0 4.153-3.506 7.95-10.444 7.95-5.447 0-9.787-2.747-10.068-8.597h2.812c.328 4.585 3.356 6.14 7.8 6.14s7.078-2.493 7.078-5.305c0-8.438-17.334-1.735-17.334-12.188 0-5.381 4.687-7.444 9.862-7.444 6.282 0 9.497 2.56 9.966 7.66h-2.813zM73.51 11.306h16.33v2.616H76.332v8.09h11.7v2.597h-11.7v9.882h13.51v2.596H73.509zM115.519 43.734h-2.813c-2.569 0-3.75-.759-3.75-3.43v-2.495c-6.712-.684-11.118-6.318-11.118-13.612 0-7.763 6.028-13.688 12.525-13.688 7.5 0 12.534 5.925 12.534 13.688 0 7.19-5.166 12.825-11.119 13.612v1.697c0 1.303.394 1.772 1.734 1.772h1.988l.019 2.456zm-5.138-30.75c-5.344 0-9.422 5.129-9.422 11.25 0 5.738 2.925 11.25 9.422 11.25 5.353 0 9.431-5.128 9.431-11.25 0-5.784-2.924-11.25-9.43-11.25zM153.506 11.306V28.35c0 6.431-4.293 9.534-10.612 9.534s-10.622-2.4-10.622-9.534V11.306h2.812v16.875c0 5.128 3.113 7.219 7.81 7.219 4.697 0 7.8-2.09 7.8-7.219V11.306h2.812zM164.016 11.306h16.322v2.616h-13.5v8.09h11.7v2.597h-11.7v9.882h13.5v2.596h-16.322zM189.403 11.306h2.813l15.937 20.944h.066V11.306h2.812v25.782h-2.812L192.29 15.796h-.066v21.29h-2.813zM238.125 11.306v2.616h-7.969v23.165h-2.812V13.922h-8.016v-2.616z" fill="#231F20" fill-rule="nonzero"></path><path fill="#6BC4E8" fill-rule="nonzero" d="M9.206 0h8.063v8.063H9.206zM9.206 18.413h8.063v8.062H9.206z"></path><path fill="#0055B8" fill-rule="nonzero" d="M18.413 18.413v8.062h8.062"></path><path fill="#002856" fill-rule="nonzero" d="M18.413 9.206h8.062v8.063h-8.063zM18.413 27.619h8.062v8.062h-8.063zM9.206 36.834h8.063v8.063H9.206z"></path><path fill="#0055B8" fill-rule="nonzero" d="M18.413 0v8.063h8.062"></path><path fill="#6BC4E8" fill-rule="nonzero" d="M8.063 16.744V9.197H.516M8.063 35.166v-7.547H.516"></path><path fill="#0055B8" fill-rule="nonzero" d="M0 10.35v8.063l8.063 8.062v-8.063zM0 28.772v8.062l8.063 8.063v-8.063z"></path><path d="M241.12 13.618a.924.924 0 0 0 .126.45c.14.215.39.323.744.323.16 0 .306-.023.436-.071.254-.091.38-.255.38-.491 0-.177-.053-.304-.162-.38-.108-.073-.278-.137-.51-.192l-.426-.1c-.28-.065-.478-.136-.593-.214-.201-.137-.301-.34-.301-.61 0-.292.099-.532.295-.72.198-.187.477-.281.837-.281.332 0 .614.082.846.247.232.165.349.428.349.789h-.415a.85.85 0 0 0-.135-.4c-.13-.17-.35-.255-.658-.255-.25 0-.427.055-.536.164a.523.523 0 0 0-.164.38c0 .16.064.277.194.35.084.049.275.108.573.178l.44.104c.214.05.379.12.494.207.202.15.3.372.3.662 0 .36-.126.618-.382.773a1.681 1.681 0 0 1-.891.232c-.395 0-.703-.104-.927-.31-.224-.205-.332-.483-.328-.835h.414zM243.847 11.414h.632l.934 2.75.93-2.75h.627v3.253h-.42v-1.92c0-.066 0-.176.004-.33.003-.153.004-.318.004-.494l-.929 2.744h-.437l-.938-2.744v.1c0 .079.003.201.007.364.004.164.007.283.007.36v1.92h-.42v-3.253z" fill="#231F20"></path></g></svg><svg width="257" height="55" viewBox="-5 -5 257 55" id="logo_white" y="915"><title>logo_white</title><g fill="#FFF" fill-rule="evenodd"><path d="M60.263 18.169c-.225-3.647-3.329-5.185-6.863-5.185-4.772 0-7.331 1.697-7.331 4.838 0 7.369 17.334.937 17.334 12.131 0 4.153-3.506 7.95-10.444 7.95-5.447 0-9.787-2.747-10.068-8.597h2.812c.328 4.585 3.356 6.14 7.8 6.14s7.078-2.493 7.078-5.305c0-8.438-17.334-1.735-17.334-12.188 0-5.381 4.687-7.444 9.862-7.444 6.282 0 9.497 2.56 9.966 7.66h-2.813zM73.51 11.306h16.33v2.616H76.332v8.09h11.7v2.597h-11.7v9.882h13.51v2.596H73.509zM115.519 43.734h-2.813c-2.569 0-3.75-.759-3.75-3.43v-2.495c-6.712-.684-11.118-6.318-11.118-13.612 0-7.763 6.028-13.688 12.525-13.688 7.5 0 12.534 5.925 12.534 13.688 0 7.19-5.166 12.825-11.119 13.612v1.697c0 1.303.394 1.772 1.734 1.772h1.988l.019 2.456zm-5.138-30.75c-5.344 0-9.422 5.129-9.422 11.25 0 5.738 2.925 11.25 9.422 11.25 5.353 0 9.431-5.128 9.431-11.25 0-5.784-2.924-11.25-9.43-11.25zM153.506 11.306V28.35c0 6.431-4.293 9.534-10.612 9.534s-10.622-2.4-10.622-9.534V11.306h2.812v16.875c0 5.128 3.113 7.219 7.81 7.219 4.697 0 7.8-2.09 7.8-7.219V11.306h2.812zM164.016 11.306h16.322v2.616h-13.5v8.09h11.7v2.597h-11.7v9.882h13.5v2.596h-16.322zM189.403 11.306h2.813l15.937 20.944h.066V11.306h2.812v25.782h-2.812L192.29 15.796h-.066v21.29h-2.813zM238.125 11.306v2.616h-7.969v23.165h-2.812V13.922h-8.016v-2.616zM9.206 0h8.063v8.063H9.206zM9.206 18.413h8.063v8.062H9.206zM18.413 18.413v8.062h8.062M18.413 9.206h8.062v8.063h-8.063zM18.413 27.619h8.062v8.062h-8.063zM9.206 36.834h8.063v8.063H9.206zM18.413 0v8.063h8.062M8.063 16.744V9.197H.516M8.063 35.166v-7.547H.516M0 10.35v8.063l8.063 8.062v-8.063zM0 28.772v8.062l8.063 8.063v-8.063z" fill-rule="nonzero"></path><path d="M241.12 13.618a.924.924 0 0 0 .126.45c.14.215.39.323.744.323.16 0 .306-.023.436-.071.254-.091.38-.255.38-.491 0-.177-.053-.304-.162-.38-.108-.073-.278-.137-.51-.192l-.426-.1c-.28-.065-.478-.136-.593-.214-.201-.137-.301-.34-.301-.61 0-.292.099-.532.295-.72.198-.187.477-.281.837-.281.332 0 .614.082.846.247.232.165.349.428.349.789h-.415a.85.85 0 0 0-.135-.4c-.13-.17-.35-.255-.658-.255-.25 0-.427.055-.536.164a.523.523 0 0 0-.164.38c0 .16.064.277.194.35.084.049.275.108.573.178l.44.104c.214.05.379.12.494.207.202.15.3.372.3.662 0 .36-.126.618-.382.773a1.681 1.681 0 0 1-.891.232c-.395 0-.703-.104-.927-.31-.224-.205-.332-.483-.328-.835h.414zM243.847 11.414h.632l.934 2.75.93-2.75h.627v3.253h-.42v-1.92c0-.066 0-.176.004-.33.003-.153.004-.318.004-.494l-.929 2.744h-.437l-.938-2.744v.1c0 .079.003.201.007.364.004.164.007.283.007.36v1.92h-.42v-3.253z"></path></g></svg><svg width="28" height="22" viewBox="-5 -5 28 22" id="social_email_blue" y="970"><title>social_emal_white</title><path d="M0 1v11h18V1L9.44 7.957a.697.697 0 0 1-.88 0L0 1zm1-1l8 6 8-6H1z" fill="#4ABCED" fill-rule="evenodd"></path></svg><svg width="28" height="22" viewBox="-5 -5 28 22" id="social_email_white" y="992"><title>social_emal_white</title><path d="M0 1v11h18V1L9.44 7.957a.697.697 0 0 1-.88 0L0 1zm1-1l8 6 8-6H1z" fill="#FFF" fill-rule="evenodd"></path></svg><svg width="19" height="28" viewBox="-5 -5 19 28" id="social_facebook_blue" y="1014"><title>social_facebook_blue</title><path d="M1.8 17.883h3.6V8.942h2.672L8.4 5.365H5.54v-1.43c0-.696.467-.859.795-.859h2.02V.011L5.574 0C2.486 0 1.785 2.285 1.785 3.748v1.617H0V8.94h1.8v8.942z" fill="#4ABCED" fill-rule="nonzero"></path></svg><svg width="19" height="28" viewBox="-5 -5 19 28" id="social_facebook_white" y="1042"><title>social_facebook_white</title><path d="M1.8 17.883h3.6V8.942h2.672L8.4 5.365H5.54v-1.43c0-.696.467-.859.795-.859h2.02V.011L5.574 0C2.486 0 1.785 2.285 1.785 3.748v1.617H0V8.94h1.8v8.942z" fill="#FFF" fill-rule="nonzero"></path></svg><svg width="26" height="26" viewBox="-5 -5 26 26" id="social_linkedin_blue" y="1070"><title>social_linkedin_blue</title><g fill="#4ABCED" fill-rule="nonzero"><path d="M.555 5.695h3.592v10.264H.555z"></path><circle cx="2.351" cy="2.36" r="1.796"></circle><path d="M15.95 10.319c0-2.77-.597-4.624-3.825-4.624-1.552 0-2.593.577-3.02 1.385h-.044V5.695H6.2V15.96h2.99v-5.087c0-1.342.254-2.64 1.914-2.64 1.635 0 1.767 1.534 1.767 2.727v5h3.08v-5.64z"></path></g></svg><svg width="26" height="26" viewBox="-5 -5 26 26" id="social_linkedin_white" y="1096"><title>social_linkedin_white</title><g fill="#FFF" fill-rule="nonzero"><path d="M.555 5.695h3.592v10.264H.555z"></path><circle cx="2.351" cy="2.36" r="1.796"></circle><path d="M15.95 10.319c0-2.77-.597-4.624-3.825-4.624-1.552 0-2.593.577-3.02 1.385h-.044V5.695H6.2V15.96h2.99v-5.087c0-1.342.254-2.64 1.914-2.64 1.635 0 1.767 1.534 1.767 2.727v5h3.08v-5.64z"></path></g></svg><svg width="29" height="26" viewBox="-5 -5 29 26" id="social_twitter_blue" y="1122"><title>social_twitter_blue</title><path d="M17.806.29a7.048 7.048 0 0 1-2.336.963C14.8.482 13.844 0 12.785 0c-2.03 0-3.677 1.776-3.677 3.967 0 .311.033.613.094.904-3.056-.166-5.766-1.745-7.58-4.145a4.192 4.192 0 0 0-.499 1.995c0 1.375.65 2.59 1.637 3.301a3.474 3.474 0 0 1-1.666-.496v.05c0 1.922 1.268 3.526 2.95 3.89a3.445 3.445 0 0 1-1.661.068c.469 1.576 1.827 2.724 3.436 2.756-1.26 1.064-2.845 1.698-4.569 1.698-.297 0-.589-.019-.877-.055 1.629 1.125 3.562 1.781 5.639 1.781 6.766 0 10.464-6.044 10.464-11.287 0-.172-.002-.344-.01-.513a7.818 7.818 0 0 0 1.835-2.054 6.92 6.92 0 0 1-2.112.624A3.94 3.94 0 0 0 17.806.29z" fill="#4ABCED" fill-rule="nonzero"></path></svg><svg width="28" height="26" viewBox="-5 -5 28 26" id="social_twitter_white" y="1148"><title>social_twitter_white</title><path d="M17.434.29a7.048 7.048 0 0 1-2.337.963C14.427.482 13.471 0 12.413 0c-2.03 0-3.678 1.776-3.678 3.967 0 .311.033.613.095.904C5.773 4.705 3.063 3.126 1.249.726A4.192 4.192 0 0 0 .75 2.721c0 1.375.65 2.59 1.636 3.301a3.474 3.474 0 0 1-1.666-.496v.05c0 1.922 1.268 3.526 2.951 3.89a3.445 3.445 0 0 1-1.662.068c.47 1.576 1.827 2.724 3.436 2.756-1.259 1.064-2.844 1.698-4.568 1.698-.298 0-.59-.019-.878-.055 1.629 1.125 3.563 1.781 5.64 1.781 6.765 0 10.464-6.044 10.464-11.287 0-.172-.002-.344-.01-.513A7.818 7.818 0 0 0 17.93 1.86a6.92 6.92 0 0 1-2.112.624A3.94 3.94 0 0 0 17.434.29z" fill="#FFF" fill-rule="nonzero"></path></svg></svg>