<?xml version="1.0" standalone="no"?>
<!DOCTYPE svg PUBLIC "-//W3C//DTD SVG 20010904//EN"
 "http://www.w3.org/TR/2001/REC-SVG-20010904/DTD/svg10.dtd">
<svg version="1.0" xmlns="http://www.w3.org/2000/svg"
 width="700.000000pt" height="700.000000pt" viewBox="0 0 700.000000 700.000000"
 preserveAspectRatio="xMidYMid meet">
<metadata>
Created by potrace 1.14, written by Peter Selinger 2001-2017
</metadata>
<g transform="translate(0.000000,700.000000) scale(0.100000,-0.100000)"
fill="#000000" stroke="none">
<path d="M2923 6183 c0 -321 3 -583 6 -584 28 -5 1146 -2 1154 3 8 5 11 175
11 578 1 315 -1 575 -4 579 -3 5 -266 8 -586 8 l-581 0 0 -584z"/>
<path d="M4262 6180 l3 -585 578 0 c317 0 576 3 575 7 -3 7 -461 468 -1008
1013 l-150 150 2 -585z"/>
<path d="M1678 5418 c9 -11 1066 -1068 1076 -1076 1 -1 3 243 3 543 l0 545
-545 0 c-434 0 -542 -3 -534 -12z"/>
<path d="M4260 4845 l0 -585 585 0 585 0 0 585 0 585 -585 0 -585 0 0 -585z"/>
<path d="M1589 5242 c-3 -9 -4 -272 -4 -583 l1 -565 582 -582 c320 -320 584
-582 586 -582 2 0 3 263 2 584 l-1 584 -581 581 c-414 413 -583 576 -585 563z"/>
<path d="M2938 4092 c-13 -3 -15 -70 -13 -580 1 -317 3 -580 3 -583 2 -8 1162
-8 1163 0 0 3 2 266 2 584 l2 577 -25 1 c-65 3 -1118 4 -1132 1z"/>
<path d="M4260 3507 l0 -584 586 0 585 1 -583 583 c-321 321 -584 583 -585
583 -2 0 -3 -263 -3 -583z"/>
<path d="M1670 2752 c0 -6 1076 -1082 1082 -1082 3 0 5 244 5 543 l0 543 -544
0 c-299 0 -543 -2 -543 -4z"/>
<path d="M4262 2171 l3 -585 583 -1 582 0 -2 585 -3 585 -583 1 -582 0 2 -585z"/>
<path d="M1589 2575 c0 -6 -2 -268 -2 -583 l-2 -572 586 -586 586 -586 -1 586
-1 586 -520 520 c-674 675 -645 646 -646 635z"/>
<path d="M2927 1413 c-2 -5 -4 -267 -3 -583 l1 -575 585 0 584 0 1 570 c0 314
-1 576 -3 583 -3 9 -129 12 -582 12 -319 0 -581 -3 -583 -7z"/>
</g>
</svg>
