<?xml version="1.0" standalone="no"?>
<!DOCTYPE svg PUBLIC "-//W3C//DTD SVG 20010904//EN"
 "http://www.w3.org/TR/2001/REC-SVG-20010904/DTD/svg10.dtd">
<svg version="1.0" xmlns="http://www.w3.org/2000/svg"
 width="700.000000pt" height="700.000000pt" viewBox="0 0 700.000000 700.000000"
 preserveAspectRatio="xMidYMid meet">
<metadata>
Created by potrace 1.11, written by Peter Selinger 2001-2013
</metadata>
<g transform="translate(0.000000,700.000000) scale(0.100000,-0.100000)"
fill="#000000" stroke="none">
<path d="M2923 6183 c0 -321 3 -583 6 -584 28 -5 1146 -2 1154 3 8 5 11 175
11 578 1 315 -1 575 -4 579 -3 5 -266 8 -586 8 l-581 0 0 -584z"/>
<path d="M4262 6180 l3 -584 565 -1 c311 0 572 1 580 3 9 2 -213 230 -563 580
-318 317 -580 579 -582 581 -3 3 -4 -258 -3 -579z"/>
<path d="M1982 5430 l-312 -5 537 -537 c296 -296 541 -540 544 -543 3 -3 6
240 6 540 l0 545 -106 1 c-58 0 -162 1 -231 2 -69 1 -266 0 -438 -3z"/>
<path d="M4260 4845 l0 -585 585 0 585 0 0 585 0 585 -585 0 -585 0 0 -585z"/>
<path d="M1588 5242 c-2 -9 -3 -272 -3 -583 l1 -565 582 -582 c320 -320 584
-582 586 -582 2 0 3 263 2 584 l-1 584 -581 581 c-413 412 -583 576 -586 563z"/>
<path d="M2938 4092 c-13 -3 -15 -70 -13 -580 1 -317 3 -580 3 -583 2 -8 1162
-8 1163 0 0 3 2 266 2 584 l2 577 -25 1 c-65 3 -1118 4 -1132 1z"/>
<path d="M4260 3509 l0 -585 580 0 c319 0 580 2 580 6 0 3 -261 266 -580 585
l-580 580 0 -586z"/>
<path d="M1670 2753 c0 -6 1077 -1083 1082 -1083 3 0 5 244 5 543 l0 544 -544
0 c-299 0 -543 -2 -543 -4z"/>
<path d="M4262 2171 l3 -585 583 -1 582 0 -2 585 -3 585 -583 1 -582 0 2 -585z"/>
<path d="M1589 2575 c0 -6 -2 -268 -2 -583 l-2 -572 586 -586 586 -586 -1 586
-1 586 -520 520 c-674 675 -645 646 -646 635z"/>
<path d="M2927 1413 c-2 -5 -4 -267 -3 -583 l1 -575 585 0 584 0 1 570 c0 314
-1 576 -3 583 -3 9 -129 12 -582 12 -319 0 -581 -3 -583 -7z"/>
</g>
</svg>
